<svg xmlns="http://www.w3.org/2000/svg" xmlns:xlink="http://www.w3.org/1999/xlink" width="2000" zoomAndPan="magnify" viewBox="0 0 1500 1499.999933" height="2000" preserveAspectRatio="xMidYMid meet" version="1.0"><defs><clipPath id="7e8a5fc349"><path d="M 216.1875 1.09375 L 434.113281 1.09375 L 434.113281 219.019531 L 216.1875 219.019531 Z M 216.1875 1.09375 " clip-rule="nonzero"/></clipPath><clipPath id="d24154ef3f"><path d="M 0.1875 0.09375 L 218.113281 0.09375 L 218.113281 218.019531 L 0.1875 218.019531 Z M 0.1875 0.09375 " clip-rule="nonzero"/></clipPath><clipPath id="8e1f450063"><rect x="0" width="219" y="0" height="219"/></clipPath><clipPath id="c6e58e635d"><path d="M 1.113281 219.019531 L 221.886719 219.019531 L 221.886719 436.941406 L 1.113281 436.941406 Z M 1.113281 219.019531 " clip-rule="nonzero"/></clipPath><clipPath id="417ffd19d3"><path d="M 0.113281 0.0195312 L 220.886719 0.0195312 L 220.886719 217.941406 L 0.113281 217.941406 Z M 0.113281 0.0195312 " clip-rule="nonzero"/></clipPath><clipPath id="eee15ac362"><rect x="0" width="221" y="0" height="218"/></clipPath><clipPath id="5628c42269"><path d="M 216.1875 219.019531 L 436.960938 219.019531 L 436.960938 436.941406 L 216.1875 436.941406 Z M 216.1875 219.019531 " clip-rule="nonzero"/></clipPath><clipPath id="7e3190bee4"><path d="M 0.1875 0.0195312 L 220.960938 0.0195312 L 220.960938 217.941406 L 0.1875 217.941406 Z M 0.1875 0.0195312 " clip-rule="nonzero"/></clipPath><clipPath id="9873ba0d38"><rect x="0" width="221" y="0" height="218"/></clipPath><clipPath id="cdb18b03fd"><path d="M 422.1875 219.019531 L 654.886719 219.019531 L 654.886719 436.941406 L 422.1875 436.941406 Z M 422.1875 219.019531 " clip-rule="nonzero"/></clipPath><clipPath id="d830366597"><path d="M 0.1875 0.0195312 L 232.886719 0.0195312 L 232.886719 217.941406 L 0.1875 217.941406 Z M 0.1875 0.0195312 " clip-rule="nonzero"/></clipPath><clipPath id="42c19907a8"><rect x="0" width="233" y="0" height="218"/></clipPath><clipPath id="85fe557ea3"><path d="M 216.1875 425.863281 L 436.960938 425.863281 L 436.960938 654.980469 L 216.1875 654.980469 Z M 216.1875 425.863281 " clip-rule="nonzero"/></clipPath><clipPath id="dfa6ac9f1a"><path d="M 0.1875 0.863281 L 220.960938 0.863281 L 220.960938 229.980469 L 0.1875 229.980469 Z M 0.1875 0.863281 " clip-rule="nonzero"/></clipPath><clipPath id="41bbe430cd"><rect x="0" width="221" y="0" height="230"/></clipPath><clipPath id="ddf99378a9"><path d="M 1.113281 654.980469 L 221.886719 654.980469 L 221.886719 872.90625 L 1.113281 872.90625 Z M 1.113281 654.980469 " clip-rule="nonzero"/></clipPath><clipPath id="2bf1553360"><path d="M 0.113281 0.980469 L 220.886719 0.980469 L 220.886719 218.90625 L 0.113281 218.90625 Z M 0.113281 0.980469 " clip-rule="nonzero"/></clipPath><clipPath id="9a07b3f019"><rect x="0" width="221" y="0" height="219"/></clipPath><clipPath id="2cd88f37a3"><path d="M 434.113281 654.980469 L 654.886719 654.980469 L 654.886719 872.90625 L 434.113281 872.90625 Z M 434.113281 654.980469 " clip-rule="nonzero"/></clipPath><clipPath id="6539b967e4"><path d="M 0.113281 0.980469 L 220.886719 0.980469 L 220.886719 218.90625 L 0.113281 218.90625 Z M 0.113281 0.980469 " clip-rule="nonzero"/></clipPath><clipPath id="7e68b914b9"><rect x="0" width="221" y="0" height="219"/></clipPath><clipPath id="90843a9f92"><rect x="0" width="656" y="0" height="874"/></clipPath></defs><g transform="matrix(1, 0, 0, 1, 422, 313)"><g clip-path="url(#90843a9f92)"><g clip-path="url(#7e8a5fc349)"><g transform="matrix(1, 0, 0, 1, 216, 1)"><g clip-path="url(#8e1f450063)"><g clip-path="url(#d24154ef3f)"><path fill="#bdffc3" d="M 0.1875 0.09375 L 218.113281 0.09375 L 218.113281 218.019531 L 0.1875 218.019531 Z M 0.1875 0.09375 " fill-opacity="1" fill-rule="nonzero"/></g></g></g></g><g clip-path="url(#c6e58e635d)"><g transform="matrix(1, 0, 0, 1, 1, 219)"><g clip-path="url(#eee15ac362)"><g clip-path="url(#417ffd19d3)"><path fill="#0055ff" d="M 0.113281 0.0195312 L 220.589844 0.0195312 L 220.589844 217.941406 L 0.113281 217.941406 Z M 0.113281 0.0195312 " fill-opacity="1" fill-rule="nonzero"/></g></g></g></g><g clip-path="url(#5628c42269)"><g transform="matrix(1, 0, 0, 1, 216, 219)"><g clip-path="url(#9873ba0d38)"><g clip-path="url(#7e3190bee4)"><path fill="#0055ff" d="M 0.1875 0.0195312 L 220.664062 0.0195312 L 220.664062 217.941406 L 0.1875 217.941406 Z M 0.1875 0.0195312 " fill-opacity="1" fill-rule="nonzero"/></g></g></g></g><g clip-path="url(#cdb18b03fd)"><g transform="matrix(1, 0, 0, 1, 422, 219)"><g clip-path="url(#42c19907a8)"><g clip-path="url(#d830366597)"><path fill="#0055ff" d="M 0.1875 0.0195312 L 232.585938 0.0195312 L 232.585938 217.941406 L 0.1875 217.941406 Z M 0.1875 0.0195312 " fill-opacity="1" fill-rule="nonzero"/></g></g></g></g><g clip-path="url(#85fe557ea3)"><g transform="matrix(1, 0, 0, 1, 216, 425)"><g clip-path="url(#41bbe430cd)"><g clip-path="url(#dfa6ac9f1a)"><path fill="#0055ff" d="M 0.1875 0.863281 L 220.960938 0.863281 L 220.960938 230.261719 L 0.1875 230.261719 Z M 0.1875 0.863281 " fill-opacity="1" fill-rule="nonzero"/></g></g></g></g><g clip-path="url(#ddf99378a9)"><g transform="matrix(1, 0, 0, 1, 1, 654)"><g clip-path="url(#9a07b3f019)"><g clip-path="url(#2bf1553360)"><path fill="#7db1ff" d="M 0.113281 0.980469 L 220.589844 0.980469 L 220.589844 218.90625 L 0.113281 218.90625 Z M 0.113281 0.980469 " fill-opacity="1" fill-rule="nonzero"/></g></g></g></g><g clip-path="url(#2cd88f37a3)"><g transform="matrix(1, 0, 0, 1, 434, 654)"><g clip-path="url(#7e68b914b9)"><g clip-path="url(#6539b967e4)"><path fill="#7db1ff" d="M 0.113281 0.980469 L 220.589844 0.980469 L 220.589844 218.90625 L 0.113281 218.90625 Z M 0.113281 0.980469 " fill-opacity="1" fill-rule="nonzero"/></g></g></g></g></g></g></svg>